<svg id="erBqmAfiEQS1" xmlns="http://www.w3.org/2000/svg" xmlns:xlink="http://www.w3.org/1999/xlink" viewBox="0 0 300 300" shape-rendering="geometricPrecision" text-rendering="geometricPrecision"><g transform="matrix(2.75 0 0 2.5-251.5-25)"><line x1="-10" y1="0" x2="1" y2="0" transform="translate(150 20)" fill="none" stroke="#000" stroke-width="10" stroke-linecap="round"/><line x1="-10" y1="0" x2="13" y2="0" transform="translate(143 40)" fill="none" stroke="#000" stroke-width="10" stroke-linecap="round"/><line x1="-10" y1="0" x2="0" y2="0" transform="translate(119 40)" fill="none" stroke="#a61313" stroke-width="10" stroke-linecap="round"/><line x1="-10" y1="0" x2="10" y2="0" transform="translate(136 60)" fill="none" stroke="#a61313" stroke-width="10" stroke-linecap="round"/><line x1="-10" y1="0" x2="1" y2="0" transform="translate(129 80)" fill="none" stroke="#000" stroke-width="10" stroke-linecap="round"/><line x1="-10" y1="0" x2="13" y2="0" transform="translate(122 100)" fill="none" stroke="#000" stroke-width="10" stroke-linecap="round"/><line x1="-10" y1="0" x2="13" y2="0" transform="translate(115 120)" fill="none" stroke="#000" stroke-width="10" stroke-linecap="round"/><line x1="-21" y1="0" x2="15" y2="0" transform="translate(162.5 80)" fill="none" stroke="#a61313" stroke-width="10" stroke-linecap="round"/><line x1="-15" y1="0" x2="21" y2="0" transform="translate(162.5 100)" fill="none" stroke="#a61313" stroke-width="10" stroke-linecap="round"/><line x1="-3" y1="0" x2="30" y2="0" transform="translate(162.5 120)" fill="none" stroke="#a61313" stroke-width="10" stroke-linecap="round"/></g></svg>
